<?xml version="1.0" encoding="utf-8"?>
<svg viewBox="104.5469 -108.804 364.741 736.046" xmlns="http://www.w3.org/2000/svg">
  <g id="object" transform="matrix(1, 0, 0, 1, -213.08303833007812, -240.781005859375)">
    <g>
      <g>
        <g>
          <g>
            <g>
              <path style="fill:url(#SVGID_00000000220723191145355620000013231424183523350934_);" d="M632.752,131.977H367.248&#10;&#9;&#9;&#9;&#9;&#9;&#9;&#9;c-27.402,0-49.618,22.216-49.618,49.617v636.812c0,27.401,22.216,49.617,49.618,49.617h265.505&#10;&#9;&#9;&#9;&#9;&#9;&#9;&#9;c27.402,0,49.618-22.216,49.618-49.617V181.594C682.37,154.193,660.154,131.977,632.752,131.977z M680.988,813.801&#10;&#9;&#9;&#9;&#9;&#9;&#9;&#9;c0,5.167-0.82,10.15-2.33,14.82c-0.11,0.359-0.23,0.719-0.359,1.069c-0.12,0.359-0.249,0.709-0.387,1.059&#10;&#9;&#9;&#9;&#9;&#9;&#9;&#9;c-0.092,0.267-0.193,0.534-0.304,0.792c-0.313,0.783-0.645,1.557-0.995,2.321c-0.156,0.341-0.313,0.682-0.479,1.013&#10;&#9;&#9;&#9;&#9;&#9;&#9;&#9;c-0.23,0.47-0.461,0.93-0.709,1.391c-0.157,0.313-0.322,0.617-0.497,0.921c-0.175,0.322-0.359,0.645-0.553,0.967&#10;&#9;&#9;&#9;&#9;&#9;&#9;&#9;c-0.516,0.884-1.068,1.759-1.649,2.616c-0.184,0.267-0.369,0.543-0.562,0.81c-0.212,0.304-0.424,0.599-0.654,0.894&#10;&#9;&#9;&#9;&#9;&#9;&#9;&#9;c-0.212,0.295-0.433,0.589-0.663,0.884c-0.221,0.295-0.451,0.58-0.691,0.866c-0.23,0.285-0.47,0.571-0.718,0.857&#10;&#9;&#9;&#9;&#9;&#9;&#9;&#9;c-0.47,0.562-0.967,1.115-1.474,1.649c-0.774,0.829-1.575,1.63-2.413,2.413c-0.249,0.23-0.497,0.461-0.755,0.682&#10;&#9;&#9;&#9;&#9;&#9;&#9;&#9;c-0.58,0.516-1.17,1.013-1.768,1.511c-0.258,0.203-0.525,0.414-0.792,0.617c-0.875,0.682-1.778,1.326-2.699,1.943&#10;&#9;&#9;&#9;&#9;&#9;&#9;&#9;c-0.304,0.212-0.617,0.414-0.93,0.608c-0.626,0.405-1.262,0.783-1.907,1.151c-0.322,0.193-0.635,0.368-0.958,0.534&#10;&#9;&#9;&#9;&#9;&#9;&#9;&#9;c-1.041,0.571-2.1,1.105-3.187,1.584c-0.285,0.138-0.571,0.258-0.856,0.378c-0.341,0.157-0.682,0.295-1.032,0.433&#10;&#9;&#9;&#9;&#9;&#9;&#9;&#9;c-0.35,0.138-0.7,0.276-1.05,0.405c-0.783,0.295-1.575,0.571-2.376,0.82c-0.276,0.092-0.562,0.175-0.847,0.258&#10;&#9;&#9;&#9;&#9;&#9;&#9;&#9;c-1.05,0.313-2.128,0.59-3.214,0.829c-0.378,0.083-0.755,0.166-1.142,0.239c-0.396,0.083-0.801,0.157-1.216,0.221&#10;&#9;&#9;&#9;&#9;&#9;&#9;&#9;c-0.746,0.129-1.501,0.24-2.266,0.332h-0.028c-0.147,0.018-0.295,0.037-0.442,0.046c-0.101,0.018-0.212,0.028-0.313,0.028&#10;&#9;&#9;&#9;&#9;&#9;&#9;&#9;c-0.046,0.009-0.083,0.009-0.129,0.009c0.682-0.074,1.354-0.166,2.026-0.276c0.332-0.055,0.663-0.111,1.004-0.175&#10;&#9;&#9;&#9;&#9;&#9;&#9;&#9;c0.332-0.055,0.663-0.129,0.986-0.193c0.995-0.203,1.971-0.451,2.938-0.719c0.322-0.083,0.645-0.184,0.958-0.286&#10;&#9;&#9;&#9;&#9;&#9;&#9;&#9;c0.635-0.193,1.262-0.405,1.888-0.626c0.939-0.341,1.86-0.709,2.763-1.105c0.304-0.12,0.608-0.258,0.903-0.405&#10;&#9;&#9;&#9;&#9;&#9;&#9;&#9;c0.295-0.138,0.59-0.285,0.884-0.424c0.589-0.295,1.17-0.599,1.75-0.912c0.571-0.322,1.133-0.645,1.695-0.986&#10;&#9;&#9;&#9;&#9;&#9;&#9;&#9;c0.507-0.313,1.004-0.635,1.501-0.958c0.055-0.028,0.101-0.064,0.147-0.101c0.811-0.553,1.603-1.124,2.376-1.722&#10;&#9;&#9;&#9;&#9;&#9;&#9;&#9;c0.258-0.193,0.516-0.396,0.765-0.608c0.718-0.58,1.418-1.188,2.1-1.814c1.676-1.557,3.242-3.233,4.651-5.029&#10;&#9;&#9;&#9;&#9;&#9;&#9;&#9;c0.203-0.249,0.405-0.516,0.599-0.774c2.045-2.708,3.786-5.655,5.158-8.787c0.221-0.497,0.433-1.013,0.626-1.52&#10;&#9;&#9;&#9;&#9;&#9;&#9;&#9;c0.976-2.478,1.741-5.066,2.247-7.746c0.101-0.525,0.193-1.059,0.276-1.593c0.322-2.155,0.497-4.357,0.497-6.604V181.594&#10;&#9;&#9;&#9;&#9;&#9;&#9;&#9;c0-22.501-17.122-41.079-39.016-43.4c-0.387-0.037-0.783-0.074-1.17-0.101c-0.396-0.028-0.801-0.055-1.197-0.074h-0.009&#10;&#9;&#9;&#9;&#9;&#9;&#9;&#9;c-0.746-0.037-1.483-0.055-2.238-0.055H367.257c-0.755,0-1.501,0.018-2.238,0.055h-0.028&#10;&#9;&#9;&#9;&#9;&#9;&#9;&#9;c-23.017,1.188-41.374,20.282-41.374,43.575v636.812c0,22.406,16.971,40.917,38.732,43.365&#10;&#9;&#9;&#9;&#9;&#9;&#9;&#9;c-0.294-0.03-0.591-0.049-0.885-0.084h-0.028c-0.764-0.092-1.52-0.203-2.266-0.332c-4.55-0.774-8.888-2.183-12.913-4.136&#10;&#9;&#9;&#9;&#9;&#9;&#9;&#9;c-0.285-0.138-0.562-0.276-0.847-0.414c-0.719-0.378-1.428-0.755-2.128-1.161c-0.322-0.184-0.635-0.368-0.949-0.562&#10;&#9;&#9;&#9;&#9;&#9;&#9;&#9;c-1.584-0.958-3.113-2.008-4.568-3.141c-0.267-0.203-0.525-0.405-0.783-0.617c-0.774-0.626-1.529-1.271-2.257-1.934&#10;&#9;&#9;&#9;&#9;&#9;&#9;&#9;c-0.24-0.221-0.479-0.442-0.709-0.672c-0.276-0.258-0.543-0.516-0.81-0.783c-0.258-0.267-0.525-0.534-0.783-0.801&#10;&#9;&#9;&#9;&#9;&#9;&#9;&#9;c-0.175-0.175-0.341-0.35-0.507-0.534c-0.212-0.23-0.424-0.461-0.626-0.691c-1.234-1.382-2.385-2.828-3.454-4.338&#10;&#9;&#9;&#9;&#9;&#9;&#9;&#9;c-0.193-0.267-0.378-0.543-0.562-0.811c-0.58-0.847-1.124-1.713-1.639-2.597c-0.193-0.313-0.378-0.636-0.553-0.958&#10;&#9;&#9;&#9;&#9;&#9;&#9;&#9;c-1.335-2.395-2.468-4.909-3.38-7.516c-0.129-0.359-0.249-0.709-0.359-1.069c-0.58-1.805-1.059-3.647-1.428-5.526&#10;&#9;&#9;&#9;&#9;&#9;&#9;&#9;c-0.074-0.378-0.147-0.755-0.212-1.133c-0.451-2.653-0.691-5.379-0.691-8.161V181.594c0-0.479,0.009-0.949,0.028-1.418&#10;&#9;&#9;&#9;&#9;&#9;&#9;&#9;c0-0.359,0.018-0.709,0.037-1.059c0.037-0.774,0.092-1.538,0.175-2.303c0.037-0.396,0.083-0.792,0.129-1.179&#10;&#9;&#9;&#9;&#9;&#9;&#9;&#9;c0.028-0.212,0.055-0.414,0.083-0.626c0.028-0.249,0.065-0.497,0.111-0.755c0.055-0.396,0.12-0.792,0.193-1.188&#10;&#9;&#9;&#9;&#9;&#9;&#9;&#9;c0.12-0.691,0.258-1.372,0.414-2.045c0.074-0.341,0.157-0.672,0.24-1.004c0.24-1.004,0.516-1.98,0.829-2.957&#10;&#9;&#9;&#9;&#9;&#9;&#9;&#9;c0.101-0.304,0.203-0.617,0.304-0.921c0.129-0.378,0.258-0.755,0.396-1.124c0.11-0.313,0.23-0.617,0.35-0.921&#10;&#9;&#9;&#9;&#9;&#9;&#9;&#9;c0.101-0.258,0.193-0.507,0.304-0.755c0.12-0.304,0.249-0.608,0.378-0.903c0.102-0.23,0.194-0.451,0.304-0.672&#10;&#9;&#9;&#9;&#9;&#9;&#9;&#9;c0.147-0.332,0.295-0.654,0.461-0.986c0.267-0.571,0.553-1.142,0.856-1.704c0.147-0.285,0.304-0.571,0.47-0.857&#10;&#9;&#9;&#9;&#9;&#9;&#9;&#9;c0.175-0.332,0.368-0.663,0.562-0.986c1.336-2.275,2.855-4.43,4.541-6.457c0.24-0.285,0.479-0.571,0.728-0.857&#10;&#9;&#9;&#9;&#9;&#9;&#9;&#9;c0.276-0.313,0.553-0.635,0.847-0.949c0.479-0.516,0.958-1.022,1.455-1.511c0.534-0.534,1.078-1.05,1.63-1.557&#10;&#9;&#9;&#9;&#9;&#9;&#9;&#9;c0.562-0.497,1.124-0.995,1.704-1.474c0.285-0.239,0.58-0.47,0.875-0.709c0.59-0.46,1.188-0.912,1.805-1.354&#10;&#9;&#9;&#9;&#9;&#9;&#9;&#9;c0.608-0.433,1.225-0.856,1.861-1.271c0.635-0.405,1.271-0.801,1.925-1.179c0.322-0.193,0.654-0.378,0.986-0.562&#10;&#9;&#9;&#9;&#9;&#9;&#9;&#9;c0.332-0.184,0.663-0.359,0.995-0.534c0.341-0.175,0.672-0.35,1.013-0.516c0.341-0.166,0.682-0.332,1.032-0.497&#10;&#9;&#9;&#9;&#9;&#9;&#9;&#9;c0.682-0.313,1.382-0.617,2.091-0.903c0.331-0.138,0.672-0.276,1.013-0.405c0.027-0.018,0.064-0.028,0.092-0.037&#10;&#9;&#9;&#9;&#9;&#9;&#9;&#9;c0.341-0.129,0.691-0.249,1.032-0.378c0.341-0.11,0.682-0.23,1.022-0.35c0.387-0.12,0.774-0.249,1.17-0.359&#10;&#9;&#9;&#9;&#9;&#9;&#9;&#9;c0.368-0.111,0.737-0.212,1.105-0.313c0.378-0.101,0.746-0.203,1.124-0.295c0.378-0.092,0.755-0.184,1.133-0.267&#10;&#9;&#9;&#9;&#9;&#9;&#9;&#9;c0.764-0.175,1.529-0.322,2.303-0.451c0.378-0.064,0.764-0.129,1.151-0.184c0.829-0.12,1.667-0.221,2.505-0.295&#10;&#9;&#9;&#9;&#9;&#9;&#9;&#9;c0.663-0.064,1.336-0.111,2.008-0.147c0.405-0.019,0.82-0.037,1.234-0.046c0.414-0.009,0.829-0.018,1.243-0.018h265.496&#10;&#9;&#9;&#9;&#9;&#9;&#9;&#9;c0.414,0,0.829,0.009,1.243,0.018c0.341,0.009,0.691,0.018,1.032,0.037c0.783,0.037,1.557,0.092,2.33,0.166h0.028&#10;&#9;&#9;&#9;&#9;&#9;&#9;&#9;c0.396,0.037,0.783,0.083,1.17,0.129c0.396,0.046,0.783,0.101,1.17,0.157c0.387,0.055,0.774,0.12,1.16,0.184&#10;&#9;&#9;&#9;&#9;&#9;&#9;&#9;c0.387,0.064,0.765,0.138,1.142,0.212c0.009-0.009,0.018-0.009,0.018,0c0.378,0.074,0.755,0.157,1.133,0.24&#10;&#9;&#9;&#9;&#9;&#9;&#9;&#9;c0.35,0.074,0.691,0.157,1.031,0.23c0.083,0.018,0.157,0.037,0.221,0.055c0.322,0.083,0.645,0.166,0.967,0.258&#10;&#9;&#9;&#9;&#9;&#9;&#9;&#9;c0.451,0.12,0.903,0.249,1.345,0.387c0.304,0.092,0.608,0.184,0.903,0.286c0.672,0.221,1.336,0.451,1.999,0.7&#10;&#9;&#9;&#9;&#9;&#9;&#9;&#9;c0.451,0.157,0.893,0.332,1.326,0.516c0.322,0.129,0.636,0.267,0.958,0.405c0.35,0.147,0.691,0.304,1.041,0.47&#10;&#9;&#9;&#9;&#9;&#9;&#9;&#9;c0.341,0.157,0.682,0.322,1.022,0.488c2.432,1.188,4.734,2.579,6.908,4.154c0.267,0.184,0.534,0.378,0.792,0.58&#10;&#9;&#9;&#9;&#9;&#9;&#9;&#9;c0.958,0.718,1.879,1.464,2.772,2.247c0.396,0.341,0.783,0.691,1.161,1.05c1.557,1.446,3.012,2.993,4.347,4.624&#10;&#9;&#9;&#9;&#9;&#9;&#9;&#9;c0.249,0.295,0.479,0.58,0.709,0.875c0.488,0.617,0.949,1.234,1.391,1.861c0.23,0.313,0.451,0.635,0.663,0.958&#10;&#9;&#9;&#9;&#9;&#9;&#9;&#9;c0.378,0.543,0.737,1.105,1.087,1.667c0.175,0.286,0.341,0.571,0.516,0.857c0.313,0.543,0.626,1.087,0.921,1.649&#10;&#9;&#9;&#9;&#9;&#9;&#9;&#9;c0.147,0.267,0.295,0.534,0.424,0.811c0.488,0.93,0.93,1.87,1.354,2.837c0.101,0.249,0.212,0.497,0.313,0.755&#10;&#9;&#9;&#9;&#9;&#9;&#9;&#9;c0.396,0.958,0.764,1.934,1.096,2.92c0.129,0.368,0.249,0.728,0.359,1.096c0.663,2.118,1.179,4.292,1.547,6.512&#10;&#9;&#9;&#9;&#9;&#9;&#9;&#9;c0.037,0.23,0.074,0.47,0.111,0.718c0.055,0.387,0.111,0.774,0.157,1.161c0.046,0.396,0.092,0.783,0.129,1.179&#10;&#9;&#9;&#9;&#9;&#9;&#9;&#9;c0.046,0.396,0.074,0.792,0.11,1.188c0.046,0.728,0.083,1.455,0.101,2.192c0.018,0.47,0.028,0.939,0.028,1.409V813.801z"/>
              <g>
                <path style="fill:url(#SVGID_00000060008043233615943670000012046303422116906373_);" d="M362.624,861.806&#10;&#9;&#9;&#9;&#9;&#9;&#9;&#9;&#9;c-0.387-0.037-0.774-0.074-1.161-0.12h-0.028c-0.764-0.092-1.52-0.203-2.266-0.332c-4.55-0.774-8.888-2.183-12.913-4.136&#10;&#9;&#9;&#9;&#9;&#9;&#9;&#9;&#9;c-0.285-0.138-0.562-0.276-0.847-0.414c-0.719-0.378-1.428-0.755-2.128-1.161c-0.322-0.184-0.635-0.368-0.949-0.562&#10;&#9;&#9;&#9;&#9;&#9;&#9;&#9;&#9;c-1.584-0.958-3.113-2.008-4.568-3.141c-0.267-0.203-0.525-0.405-0.783-0.617c-0.774-0.626-1.529-1.271-2.257-1.934&#10;&#9;&#9;&#9;&#9;&#9;&#9;&#9;&#9;c-0.24-0.221-0.479-0.442-0.709-0.672c-0.276-0.258-0.543-0.516-0.81-0.783c-0.258-0.267-0.525-0.534-0.783-0.801&#10;&#9;&#9;&#9;&#9;&#9;&#9;&#9;&#9;c-0.175-0.175-0.341-0.35-0.507-0.534c-0.212-0.23-0.424-0.461-0.626-0.691c-1.234-1.382-2.385-2.828-3.454-4.338&#10;&#9;&#9;&#9;&#9;&#9;&#9;&#9;&#9;c-0.193-0.267-0.378-0.543-0.562-0.811c-0.58-0.847-1.124-1.713-1.639-2.597c-0.193-0.313-0.378-0.636-0.553-0.958&#10;&#9;&#9;&#9;&#9;&#9;&#9;&#9;&#9;c-1.335-2.395-2.468-4.909-3.38-7.516c-0.129-0.359-0.249-0.709-0.359-1.069c-0.58-1.805-1.059-3.647-1.428-5.526&#10;&#9;&#9;&#9;&#9;&#9;&#9;&#9;&#9;c-0.074-0.378-0.147-0.755-0.212-1.133c-0.451-2.653-0.691-5.379-0.691-8.161V186.199c0-25.836,20.429-46.992,45.979-48.181&#10;&#9;&#9;&#9;&#9;&#9;&#9;&#9;&#9;c-23.017,1.188-41.374,20.282-41.374,43.575v636.812C323.617,840.907,340.73,859.485,362.624,861.806z"/>
                <path style="fill:url(#SVGID_00000083776159923987197470000011598630192387189408_);" d="M680.988,186.199v627.601&#10;&#9;&#9;&#9;&#9;&#9;&#9;&#9;&#9;c0,5.167-0.82,10.15-2.33,14.82c-0.11,0.359-0.23,0.719-0.359,1.069c-0.12,0.359-0.249,0.709-0.387,1.059&#10;&#9;&#9;&#9;&#9;&#9;&#9;&#9;&#9;c-0.092,0.267-0.193,0.534-0.304,0.792c-0.313,0.783-0.645,1.557-0.995,2.321c-0.156,0.341-0.313,0.682-0.479,1.013&#10;&#9;&#9;&#9;&#9;&#9;&#9;&#9;&#9;c-0.23,0.47-0.461,0.93-0.709,1.391c-0.157,0.313-0.322,0.617-0.497,0.921c-0.175,0.322-0.359,0.645-0.553,0.967&#10;&#9;&#9;&#9;&#9;&#9;&#9;&#9;&#9;c-0.516,0.884-1.068,1.759-1.649,2.616c-0.184,0.267-0.369,0.543-0.562,0.81c-0.212,0.304-0.433,0.599-0.654,0.894&#10;&#9;&#9;&#9;&#9;&#9;&#9;&#9;&#9;c-0.212,0.304-0.442,0.599-0.663,0.884c-0.23,0.295-0.46,0.58-0.691,0.866c-0.23,0.285-0.47,0.571-0.718,0.857&#10;&#9;&#9;&#9;&#9;&#9;&#9;&#9;&#9;c-0.479,0.562-0.967,1.115-1.474,1.649c-0.774,0.829-1.575,1.63-2.413,2.413c-0.249,0.221-0.497,0.451-0.755,0.682&#10;&#9;&#9;&#9;&#9;&#9;&#9;&#9;&#9;c-0.58,0.516-1.17,1.013-1.768,1.511c-0.258,0.203-0.525,0.405-0.792,0.617c-0.875,0.682-1.778,1.326-2.699,1.943&#10;&#9;&#9;&#9;&#9;&#9;&#9;&#9;&#9;c-0.304,0.203-0.617,0.405-0.93,0.608c-0.626,0.405-1.262,0.783-1.907,1.151c-0.313,0.184-0.635,0.368-0.958,0.534&#10;&#9;&#9;&#9;&#9;&#9;&#9;&#9;&#9;c-1.041,0.571-2.1,1.105-3.187,1.584c-0.285,0.138-0.571,0.258-0.856,0.378c-0.341,0.157-0.682,0.295-1.032,0.433&#10;&#9;&#9;&#9;&#9;&#9;&#9;&#9;&#9;c-0.35,0.138-0.7,0.276-1.05,0.405c-0.783,0.295-1.575,0.571-2.376,0.82c-0.286,0.092-0.562,0.175-0.847,0.258&#10;&#9;&#9;&#9;&#9;&#9;&#9;&#9;&#9;c-1.05,0.313-2.128,0.59-3.214,0.829c-0.378,0.083-0.755,0.166-1.142,0.239c-0.396,0.083-0.801,0.157-1.216,0.221&#10;&#9;&#9;&#9;&#9;&#9;&#9;&#9;&#9;c-0.755,0.129-1.51,0.24-2.266,0.332h-0.028c-0.387,0.046-0.774,0.083-1.161,0.12c21.894-2.321,39.016-20.899,39.016-43.4&#10;&#9;&#9;&#9;&#9;&#9;&#9;&#9;&#9;V181.594c0-22.897-17.73-41.733-40.186-43.502C661.195,139.861,680.988,160.76,680.988,186.199z"/>
                <path style="fill:url(#SVGID_00000160896849857157964290000005549067166555924112_);" d="M680.988,813.801v4.605&#10;&#9;&#9;&#9;&#9;&#9;&#9;&#9;&#9;c0,26.6-21.636,48.236-48.236,48.236H367.257c-26.6,0-48.245-21.636-48.245-48.236v-4.605c0,2.781,0.24,5.508,0.691,8.161&#10;&#9;&#9;&#9;&#9;&#9;&#9;&#9;&#9;c0.065,0.378,0.138,0.755,0.212,1.133c0.368,1.879,0.847,3.721,1.428,5.526c0.111,0.359,0.23,0.709,0.359,1.069&#10;&#9;&#9;&#9;&#9;&#9;&#9;&#9;&#9;c0.912,2.606,2.045,5.121,3.38,7.516c0.175,0.322,0.359,0.645,0.553,0.958c0.516,0.884,1.059,1.75,1.639,2.597&#10;&#9;&#9;&#9;&#9;&#9;&#9;&#9;&#9;c0.184,0.267,0.368,0.543,0.562,0.811c1.068,1.511,2.22,2.957,3.454,4.338c0.203,0.23,0.415,0.461,0.626,0.691&#10;&#9;&#9;&#9;&#9;&#9;&#9;&#9;&#9;c0.166,0.184,0.332,0.359,0.507,0.534c0.258,0.267,0.525,0.534,0.783,0.801c0.267,0.267,0.534,0.525,0.81,0.783&#10;&#9;&#9;&#9;&#9;&#9;&#9;&#9;&#9;c0.23,0.23,0.47,0.451,0.709,0.672c0.728,0.663,1.483,1.308,2.257,1.934c0.258,0.212,0.516,0.414,0.783,0.617&#10;&#9;&#9;&#9;&#9;&#9;&#9;&#9;&#9;c1.455,1.133,2.984,2.183,4.568,3.141c0.313,0.193,0.626,0.378,0.949,0.562c0.7,0.405,1.409,0.783,2.128,1.161&#10;&#9;&#9;&#9;&#9;&#9;&#9;&#9;&#9;c0.285,0.138,0.562,0.276,0.847,0.414c4.025,1.953,8.363,3.362,12.913,4.136c0.746,0.129,1.501,0.24,2.266,0.332h0.028&#10;&#9;&#9;&#9;&#9;&#9;&#9;&#9;&#9;c0.774,0.092,1.547,0.166,2.33,0.221c0.396,0.028,0.801,0.055,1.197,0.074c0.746,0.037,1.501,0.055,2.266,0.055h265.496&#10;&#9;&#9;&#9;&#9;&#9;&#9;&#9;&#9;c0.755,0,1.501-0.018,2.247-0.055c0.396-0.018,0.801-0.046,1.197-0.074c0.635-0.046,1.262-0.101,1.888-0.175&#10;&#9;&#9;&#9;&#9;&#9;&#9;&#9;&#9;c0.147-0.009,0.295-0.028,0.442-0.046h0.028c0.764-0.092,1.52-0.203,2.266-0.332c0.414-0.064,0.82-0.138,1.216-0.221&#10;&#9;&#9;&#9;&#9;&#9;&#9;&#9;&#9;c0.387-0.074,0.765-0.156,1.142-0.239c1.087-0.239,2.164-0.516,3.214-0.829c0.286-0.083,0.571-0.166,0.847-0.258&#10;&#9;&#9;&#9;&#9;&#9;&#9;&#9;&#9;c0.801-0.249,1.594-0.525,2.376-0.82c0.35-0.129,0.7-0.267,1.05-0.405c0.35-0.138,0.691-0.276,1.032-0.433&#10;&#9;&#9;&#9;&#9;&#9;&#9;&#9;&#9;c0.285-0.12,0.571-0.24,0.856-0.378c1.087-0.479,2.146-1.013,3.187-1.584c0.322-0.166,0.636-0.341,0.958-0.534&#10;&#9;&#9;&#9;&#9;&#9;&#9;&#9;&#9;c0.645-0.368,1.28-0.746,1.907-1.151c0.313-0.193,0.626-0.396,0.93-0.608c0.921-0.617,1.824-1.262,2.699-1.943&#10;&#9;&#9;&#9;&#9;&#9;&#9;&#9;&#9;c0.267-0.203,0.534-0.414,0.792-0.617c0.599-0.497,1.188-0.995,1.768-1.511c0.258-0.221,0.507-0.451,0.755-0.682&#10;&#9;&#9;&#9;&#9;&#9;&#9;&#9;&#9;c0.838-0.783,1.64-1.584,2.413-2.413c0.507-0.534,1.004-1.087,1.474-1.649c0.249-0.286,0.488-0.571,0.718-0.857&#10;&#9;&#9;&#9;&#9;&#9;&#9;&#9;&#9;c0.24-0.286,0.47-0.571,0.691-0.866c0.23-0.295,0.451-0.589,0.663-0.884c0.23-0.295,0.442-0.59,0.654-0.894&#10;&#9;&#9;&#9;&#9;&#9;&#9;&#9;&#9;c0.193-0.267,0.378-0.543,0.562-0.81c0.58-0.857,1.133-1.732,1.649-2.616c0.193-0.322,0.378-0.645,0.553-0.967&#10;&#9;&#9;&#9;&#9;&#9;&#9;&#9;&#9;c0.175-0.304,0.341-0.608,0.497-0.921c0.249-0.461,0.479-0.921,0.709-1.391c0.166-0.332,0.332-0.672,0.479-1.013&#10;&#9;&#9;&#9;&#9;&#9;&#9;&#9;&#9;c0.35-0.765,0.682-1.538,0.995-2.321c0.111-0.258,0.212-0.525,0.304-0.792c0.138-0.35,0.267-0.7,0.387-1.059&#10;&#9;&#9;&#9;&#9;&#9;&#9;&#9;&#9;c0.129-0.35,0.249-0.709,0.359-1.069C680.169,823.951,680.988,818.968,680.988,813.801z"/>
              </g>
              <path style="fill:url(#SVGID_00000096749894721479156310000009917658617191037079_);" d="M680.988,181.594v4.605&#10;&#9;&#9;&#9;&#9;&#9;&#9;&#9;c0-25.044-19.177-45.685-43.621-48.006c-0.387-0.037-0.783-0.074-1.17-0.101c-0.396-0.028-0.801-0.055-1.197-0.074h-0.009&#10;&#9;&#9;&#9;&#9;&#9;&#9;&#9;c-0.746-0.037-1.483-0.055-2.238-0.055H367.257c-0.755,0-1.501,0.018-2.238,0.055h-0.028&#10;&#9;&#9;&#9;&#9;&#9;&#9;&#9;c-25.55,1.188-45.979,22.345-45.979,48.181v-4.605c0-0.479,0.009-0.949,0.028-1.418c0-0.359,0.018-0.709,0.037-1.059&#10;&#9;&#9;&#9;&#9;&#9;&#9;&#9;c0.037-0.774,0.092-1.538,0.175-2.303c0.037-0.396,0.083-0.792,0.129-1.179c0.028-0.212,0.055-0.414,0.083-0.626&#10;&#9;&#9;&#9;&#9;&#9;&#9;&#9;c0.028-0.249,0.065-0.497,0.111-0.755c0.055-0.396,0.12-0.792,0.193-1.188c0.12-0.691,0.258-1.372,0.414-2.045&#10;&#9;&#9;&#9;&#9;&#9;&#9;&#9;c0.074-0.341,0.157-0.672,0.24-1.004c0.24-1.004,0.516-1.98,0.829-2.957c0.101-0.304,0.203-0.617,0.304-0.921&#10;&#9;&#9;&#9;&#9;&#9;&#9;&#9;c0.129-0.378,0.258-0.755,0.396-1.124c0.11-0.313,0.23-0.617,0.35-0.921c0.101-0.258,0.193-0.507,0.304-0.755&#10;&#9;&#9;&#9;&#9;&#9;&#9;&#9;c0.12-0.304,0.249-0.608,0.378-0.903c0.102-0.23,0.194-0.451,0.304-0.672c0.147-0.332,0.295-0.654,0.461-0.986&#10;&#9;&#9;&#9;&#9;&#9;&#9;&#9;c0.267-0.571,0.553-1.142,0.856-1.704c0.147-0.285,0.304-0.571,0.47-0.857c0.175-0.332,0.368-0.663,0.562-0.986&#10;&#9;&#9;&#9;&#9;&#9;&#9;&#9;c1.336-2.275,2.855-4.43,4.541-6.457c0.24-0.285,0.479-0.571,0.728-0.857c0.276-0.313,0.553-0.635,0.847-0.949&#10;&#9;&#9;&#9;&#9;&#9;&#9;&#9;c0.479-0.516,0.958-1.022,1.455-1.511c0.534-0.534,1.078-1.05,1.63-1.557c0.562-0.497,1.124-0.995,1.704-1.474&#10;&#9;&#9;&#9;&#9;&#9;&#9;&#9;c0.285-0.239,0.58-0.47,0.875-0.709c0.59-0.46,1.188-0.912,1.805-1.354c0.608-0.433,1.225-0.856,1.861-1.271&#10;&#9;&#9;&#9;&#9;&#9;&#9;&#9;c0.635-0.405,1.271-0.801,1.925-1.179c0.322-0.193,0.654-0.378,0.986-0.562c0.332-0.184,0.663-0.359,0.995-0.534&#10;&#9;&#9;&#9;&#9;&#9;&#9;&#9;c0.341-0.175,0.672-0.35,1.013-0.516c0.341-0.166,0.682-0.332,1.032-0.497c0.682-0.313,1.382-0.617,2.091-0.903&#10;&#9;&#9;&#9;&#9;&#9;&#9;&#9;c0.331-0.138,0.672-0.276,1.013-0.405c0.027-0.018,0.064-0.028,0.092-0.037c0.341-0.129,0.691-0.249,1.032-0.378&#10;&#9;&#9;&#9;&#9;&#9;&#9;&#9;c0.341-0.11,0.682-0.23,1.022-0.35c0.387-0.12,0.774-0.249,1.17-0.359c0.368-0.111,0.737-0.212,1.105-0.313&#10;&#9;&#9;&#9;&#9;&#9;&#9;&#9;c0.378-0.101,0.746-0.203,1.124-0.295c0.378-0.092,0.755-0.184,1.133-0.267c0.764-0.175,1.529-0.322,2.303-0.451&#10;&#9;&#9;&#9;&#9;&#9;&#9;&#9;c0.378-0.064,0.764-0.129,1.151-0.184c0.829-0.12,1.667-0.221,2.505-0.295c0.663-0.064,1.336-0.111,2.008-0.147&#10;&#9;&#9;&#9;&#9;&#9;&#9;&#9;c0.405-0.019,0.82-0.037,1.234-0.046c0.414-0.009,0.829-0.018,1.243-0.018h265.496c0.414,0,0.829,0.009,1.243,0.018&#10;&#9;&#9;&#9;&#9;&#9;&#9;&#9;c0.341,0.009,0.691,0.018,1.032,0.037c0.783,0.037,1.557,0.092,2.33,0.166h0.028c0.396,0.037,0.783,0.083,1.17,0.129&#10;&#9;&#9;&#9;&#9;&#9;&#9;&#9;c0.396,0.046,0.783,0.101,1.17,0.157c0.387,0.055,0.774,0.12,1.16,0.184c0.387,0.064,0.765,0.138,1.142,0.212&#10;&#9;&#9;&#9;&#9;&#9;&#9;&#9;c0.009-0.009,0.018-0.009,0.018,0c0.378,0.074,0.755,0.157,1.133,0.24c0.35,0.074,0.691,0.157,1.031,0.23&#10;&#9;&#9;&#9;&#9;&#9;&#9;&#9;c0.083,0.018,0.157,0.037,0.221,0.055c0.322,0.083,0.645,0.166,0.967,0.258c0.451,0.12,0.903,0.249,1.345,0.387&#10;&#9;&#9;&#9;&#9;&#9;&#9;&#9;c0.304,0.092,0.608,0.184,0.903,0.286c0.672,0.221,1.336,0.451,1.999,0.7c0.451,0.157,0.893,0.332,1.326,0.516&#10;&#9;&#9;&#9;&#9;&#9;&#9;&#9;c0.322,0.129,0.636,0.267,0.958,0.405c0.35,0.147,0.691,0.304,1.041,0.47c0.341,0.157,0.682,0.322,1.022,0.488&#10;&#9;&#9;&#9;&#9;&#9;&#9;&#9;c2.432,1.188,4.734,2.579,6.908,4.154c0.267,0.184,0.534,0.378,0.792,0.58c0.958,0.718,1.879,1.464,2.772,2.247&#10;&#9;&#9;&#9;&#9;&#9;&#9;&#9;c0.396,0.341,0.783,0.691,1.161,1.05c1.557,1.446,3.012,2.993,4.347,4.624c0.249,0.295,0.479,0.58,0.709,0.875&#10;&#9;&#9;&#9;&#9;&#9;&#9;&#9;c0.488,0.617,0.949,1.234,1.391,1.861c0.23,0.313,0.451,0.635,0.663,0.958c0.378,0.543,0.737,1.105,1.087,1.667&#10;&#9;&#9;&#9;&#9;&#9;&#9;&#9;c0.175,0.286,0.341,0.571,0.516,0.857c0.313,0.543,0.626,1.087,0.921,1.649c0.147,0.267,0.295,0.534,0.424,0.811&#10;&#9;&#9;&#9;&#9;&#9;&#9;&#9;c0.488,0.93,0.93,1.87,1.354,2.837c0.101,0.249,0.212,0.497,0.313,0.755c0.396,0.958,0.764,1.934,1.096,2.92&#10;&#9;&#9;&#9;&#9;&#9;&#9;&#9;c0.129,0.368,0.249,0.728,0.359,1.096c0.663,2.118,1.179,4.292,1.547,6.512c0.037,0.23,0.074,0.47,0.111,0.718&#10;&#9;&#9;&#9;&#9;&#9;&#9;&#9;c0.055,0.387,0.111,0.774,0.157,1.161c0.046,0.396,0.092,0.783,0.129,1.179c0.046,0.396,0.074,0.792,0.11,1.188&#10;&#9;&#9;&#9;&#9;&#9;&#9;&#9;c0.046,0.728,0.083,1.455,0.101,2.192C680.979,180.654,680.988,181.124,680.988,181.594z"/>
            </g>
            <g>
              <path style="fill:#404040;" d="M635,138.019h-0.009c-0.737-0.037-1.483-0.055-2.238-0.055H367.257&#10;&#9;&#9;&#9;&#9;&#9;&#9;&#9;c-0.755,0-1.501,0.018-2.238,0.055h-0.028c-23.017,1.188-41.374,20.282-41.374,43.575v636.812&#10;&#9;&#9;&#9;&#9;&#9;&#9;&#9;c0,22.898,17.721,41.733,40.177,43.502c0.396,0.028,0.801,0.055,1.197,0.074c0.746,0.037,1.501,0.055,2.266,0.055h265.496&#10;&#9;&#9;&#9;&#9;&#9;&#9;&#9;c0.755,0,1.501-0.018,2.247-0.055c0.396-0.018,0.801-0.046,1.197-0.074c22.456-1.768,40.186-20.604,40.186-43.502V181.594&#10;&#9;&#9;&#9;&#9;&#9;&#9;&#9;C676.383,158.291,658.017,139.198,635,138.019z M672.699,818.406c0,20.705-16.165,38.206-36.76,39.827&#10;&#9;&#9;&#9;&#9;&#9;&#9;&#9;c-0.368,0.028-0.746,0.055-1.124,0.065c-0.682,0.037-1.372,0.055-2.063,0.055H367.257c-0.7,0-1.4-0.018-2.091-0.055&#10;&#9;&#9;&#9;&#9;&#9;&#9;&#9;c-0.368-0.009-0.746-0.037-1.087-0.065c-20.622-1.621-36.778-19.121-36.778-39.827V181.594&#10;&#9;&#9;&#9;&#9;&#9;&#9;&#9;c0-21.24,16.588-38.749,37.791-39.891h0.018l0.092-0.009c0.672-0.028,1.363-0.046,2.054-0.046h265.496&#10;&#9;&#9;&#9;&#9;&#9;&#9;&#9;c0.691,0,1.382,0.018,2.054,0.046l0.065,0.009c21.221,1.114,37.828,18.633,37.828,39.891V818.406z"/>
            </g>
            <path style="fill:url(#SVGID_00000158719476673808259510000014313770246371973816_);" d="M672.69,181.852v636.812&#10;&#9;&#9;&#9;&#9;&#9;&#9;c0,3.942-0.589,7.774-1.676,11.394c-0.875,2.892-2.063,5.655-3.546,8.244c-0.304,0.534-0.626,1.059-0.949,1.575&#10;&#9;&#9;&#9;&#9;&#9;&#9;c-0.497,0.774-1.013,1.529-1.547,2.266c-1.529,2.082-3.251,4.007-5.14,5.766c3.491-6.097,5.49-13.171,5.49-20.65v-7.341&#10;&#9;&#9;&#9;&#9;&#9;&#9;c0.018-0.433,0.028-0.875,0.028-1.317V181.788c0-0.451-0.009-0.903-0.028-1.345v-7.184c0-7.571-1.999-14.682-5.499-20.788&#10;&#9;&#9;&#9;&#9;&#9;&#9;C667.753,159.783,672.69,170.265,672.69,181.852z"/>
            <g>
              <path d="M634.678,145.379l-0.169-0.011c-0.581-0.021-1.163-0.032-1.754-0.032h-265.5c-0.602,0-1.205,0.011-1.797,0.032&#10;&#9;&#9;&#9;&#9;&#9;&#9;&#9;l-0.18,0.021h-0.085c-19.191,1.078-34.209,16.972-34.209,36.206v636.806c0,18.811,14.658,34.684,33.395,36.164&#10;&#9;&#9;&#9;&#9;&#9;&#9;&#9;c0.275,0.021,0.581,0.042,0.877,0.053h0.106c0.624,0.032,1.258,0.053,1.892,0.053h265.5c0.624,0,1.247-0.021,1.86-0.053h0.116&#10;&#9;&#9;&#9;&#9;&#9;&#9;&#9;c0.307-0.011,0.623-0.032,0.919-0.063c18.705-1.469,33.363-17.353,33.363-36.153V181.595&#10;&#9;&#9;&#9;&#9;&#9;&#9;&#9;C669.013,162.298,653.933,146.393,634.678,145.379z M659.344,818.412c0,6.034-2.061,11.646-5.517,16.159&#10;&#9;&#9;&#9;&#9;&#9;&#9;&#9;c-0.19,0.243-0.38,0.476-0.57,0.708c-0.581,0.708-1.205,1.384-1.849,2.029c-0.571,0.56-1.173,1.109-1.797,1.628H649.6&#10;&#9;&#9;&#9;&#9;&#9;&#9;&#9;c-0.782,0.644-1.606,1.247-2.462,1.807c-0.856,0.56-1.733,1.067-2.653,1.522h-0.011c-0.454,0.232-0.919,0.444-1.395,0.644&#10;&#9;&#9;&#9;&#9;&#9;&#9;&#9;c0,0,0,0-0.011,0c-0.465,0.201-0.951,0.391-1.437,0.56c-0.972,0.349-1.976,0.645-3.001,0.877&#10;&#9;&#9;&#9;&#9;&#9;&#9;&#9;c-1.226,0.275-2.484,0.465-3.773,0.571c-0.116,0.01-0.233,0.021-0.349,0.032h-0.169l-0.116,0.011h-0.127&#10;&#9;&#9;&#9;&#9;&#9;&#9;&#9;c-0.116,0.01-0.222,0.01-0.328,0.021c-0.116,0-0.222,0.011-0.338,0.011c-0.232,0-0.465,0.01-0.687,0.01H367.255&#10;&#9;&#9;&#9;&#9;&#9;&#9;&#9;c-0.222,0-0.454-0.01-0.687-0.01c-0.233-0.011-0.465-0.021-0.698-0.032h-0.095l-0.106-0.011h-0.169&#10;&#9;&#9;&#9;&#9;&#9;&#9;&#9;c-0.116-0.011-0.233-0.021-0.359-0.032c-13.728-1.078-24.486-12.724-24.486-26.505V181.595&#10;&#9;&#9;&#9;&#9;&#9;&#9;&#9;c0-14.013,10.885-25.617,24.835-26.536h0.232l0.359-0.032c0.433-0.021,0.814-0.021,1.173-0.021h265.489&#10;&#9;&#9;&#9;&#9;&#9;&#9;&#9;c0.359,0,0.75,0,1.173,0.021l0.127,0.011h0.127c0.085,0,0.18,0.011,0.264,0.021c0.264,0.011,0.518,0.032,0.771,0.063&#10;&#9;&#9;&#9;&#9;&#9;&#9;&#9;c0.116,0,0.232,0.011,0.349,0.032c0.233,0.021,0.465,0.042,0.697,0.084c0.275,0.021,0.55,0.063,0.824,0.116&#10;&#9;&#9;&#9;&#9;&#9;&#9;&#9;c0.01,0,0.032,0,0.042,0.011c0.401,0.053,0.793,0.127,1.183,0.211c0.074,0.021,0.148,0.042,0.222,0.053&#10;&#9;&#9;&#9;&#9;&#9;&#9;&#9;c0.328,0.064,0.645,0.148,0.962,0.232c0.465,0.127,0.93,0.264,1.395,0.412c0.37,0.106,0.74,0.233,1.099,0.37&#10;&#9;&#9;&#9;&#9;&#9;&#9;&#9;c0.391,0.137,0.782,0.296,1.163,0.465c0.771,0.317,1.511,0.676,2.24,1.078c0.666,0.349,1.31,0.74,1.934,1.152&#10;&#9;&#9;&#9;&#9;&#9;&#9;&#9;c0.137,0.095,0.275,0.19,0.423,0.285c0.254,0.18,0.507,0.359,0.761,0.539c0.338,0.232,0.655,0.486,0.972,0.75&#10;&#9;&#9;&#9;&#9;&#9;&#9;&#9;c0.634,0.518,1.247,1.057,1.828,1.628c0.307,0.275,0.592,0.571,0.856,0.877c0.275,0.296,0.55,0.602,0.814,0.909&#10;&#9;&#9;&#9;&#9;&#9;&#9;&#9;c1.067,1.247,2.018,2.579,2.832,4.005c0.412,0.708,0.782,1.448,1.131,2.198c0.338,0.75,0.655,1.511,0.93,2.304&#10;&#9;&#9;&#9;&#9;&#9;&#9;&#9;c0.138,0.391,0.264,0.782,0.381,1.184c0.254,0.867,0.476,1.744,0.634,2.642c0.074,0.359,0.137,0.708,0.18,1.067&#10;&#9;&#9;&#9;&#9;&#9;&#9;&#9;c0.19,1.258,0.285,2.558,0.285,3.868V818.412z"/>
              <path d="M411.651,167.265c-0.095-0.18-0.169-0.359-0.254-0.539c-0.021-0.074-0.053-0.138-0.074-0.201&#10;&#9;&#9;&#9;&#9;&#9;&#9;&#9;C411.429,166.779,411.535,167.022,411.651,167.265z"/>
              <path d="M588.675,166.525c-0.021,0.063-0.053,0.127-0.074,0.201c-0.085,0.18-0.159,0.359-0.254,0.539&#10;&#9;&#9;&#9;&#9;&#9;&#9;&#9;C588.464,167.022,588.57,166.779,588.675,166.525z"/>
            </g>
            <path d="M594.435,155.006c-2.188,0.116-3.963,1.807-4.185,3.974c0,0.201-0.011,0.391-0.021,0.581&#10;&#9;&#9;&#9;&#9;&#9;&#9;c-0.032,0.803-0.116,1.596-0.254,2.378c-0.042,0.275-0.085,0.539-0.148,0.803c0,0.011,0,0.011,0,0.011&#10;&#9;&#9;&#9;&#9;&#9;&#9;c-0.064,0.328-0.138,0.645-0.222,0.962c-0.063,0.285-0.148,0.571-0.232,0.856c-0.021,0.063-0.042,0.127-0.063,0.201&#10;&#9;&#9;&#9;&#9;&#9;&#9;c-0.021,0.063-0.042,0.137-0.074,0.212c-0.011,0.063-0.032,0.116-0.053,0.169c-0.031,0.095-0.063,0.19-0.095,0.285&#10;&#9;&#9;&#9;&#9;&#9;&#9;c-0.042,0.105-0.074,0.211-0.116,0.317c-0.084,0.264-0.19,0.518-0.296,0.771c-0.106,0.254-0.211,0.497-0.328,0.74&#10;&#9;&#9;&#9;&#9;&#9;&#9;c-0.01,0.042-0.021,0.074-0.042,0.105c-0.01,0.021-0.01,0.032-0.021,0.053c-0.095,0.211-0.201,0.412-0.307,0.613&#10;&#9;&#9;&#9;&#9;&#9;&#9;c-0.085,0.18-0.18,0.359-0.275,0.528c-0.021,0.053-0.053,0.105-0.095,0.169c-0.042,0.095-0.095,0.18-0.148,0.264&#10;&#9;&#9;&#9;&#9;&#9;&#9;c-0.064,0.127-0.138,0.243-0.212,0.359c-0.021,0.032-0.031,0.064-0.053,0.095c-0.021,0.042-0.053,0.084-0.085,0.137&#10;&#9;&#9;&#9;&#9;&#9;&#9;c-0.053,0.085-0.095,0.158-0.148,0.232c-0.053,0.095-0.106,0.18-0.169,0.264c-0.042,0.074-0.095,0.148-0.148,0.222&#10;&#9;&#9;&#9;&#9;&#9;&#9;c-0.021,0.042-0.053,0.074-0.085,0.116c-0.063,0.095-0.116,0.18-0.18,0.264c-0.042,0.063-0.085,0.127-0.137,0.18&#10;&#9;&#9;&#9;&#9;&#9;&#9;c-0.053,0.095-0.116,0.18-0.19,0.264c-0.011,0.021-0.032,0.042-0.042,0.063c-0.011,0.021-0.031,0.042-0.053,0.053&#10;&#9;&#9;&#9;&#9;&#9;&#9;c-0.064,0.095-0.138,0.19-0.212,0.285c-0.021,0.042-0.053,0.074-0.085,0.105c-0.074,0.106-0.158,0.212-0.243,0.306h-0.01&#10;&#9;&#9;&#9;&#9;&#9;&#9;c-0.106,0.127-0.211,0.254-0.317,0.37c-0.095,0.137-0.211,0.264-0.328,0.38c0,0.011-0.011,0.021-0.011,0.021h-0.011&#10;&#9;&#9;&#9;&#9;&#9;&#9;c-0.063,0.085-0.138,0.158-0.211,0.232c-0.074,0.085-0.158,0.169-0.243,0.254c-0.074,0.085-0.148,0.159-0.233,0.233&#10;&#9;&#9;&#9;&#9;&#9;&#9;c-0.137,0.148-0.275,0.285-0.433,0.423c-0.106,0.116-0.211,0.211-0.338,0.317c-0.074,0.063-0.137,0.127-0.211,0.19&#10;&#9;&#9;&#9;&#9;&#9;&#9;c-0.169,0.148-0.349,0.296-0.518,0.433c-0.158,0.137-0.328,0.264-0.497,0.402c-0.105,0.085-0.201,0.159-0.306,0.232&#10;&#9;&#9;&#9;&#9;&#9;&#9;c-0.116,0.095-0.233,0.18-0.359,0.264c0,0.011-0.011,0.011-0.011,0.011c-0.116,0.085-0.233,0.169-0.359,0.243&#10;&#9;&#9;&#9;&#9;&#9;&#9;c-0.053,0.053-0.105,0.085-0.158,0.116c-0.201,0.127-0.402,0.264-0.602,0.381c-0.158,0.116-0.317,0.211-0.476,0.296&#10;&#9;&#9;&#9;&#9;&#9;&#9;c-0.201,0.127-0.402,0.243-0.613,0.338c-0.074,0.053-0.158,0.095-0.233,0.137c-0.021,0.011-0.032,0.021-0.053,0.021&#10;&#9;&#9;&#9;&#9;&#9;&#9;c-0.148,0.085-0.296,0.159-0.454,0.232c-0.127,0.074-0.264,0.138-0.412,0.201c-0.116,0.063-0.243,0.116-0.37,0.169&#10;&#9;&#9;&#9;&#9;&#9;&#9;c-0.063,0.032-0.127,0.053-0.201,0.085c-0.053,0.031-0.106,0.053-0.169,0.074h-0.011c-0.328,0.138-0.644,0.264-0.972,0.381&#10;&#9;&#9;&#9;&#9;&#9;&#9;c-0.307,0.105-0.602,0.211-0.909,0.306c-0.338,0.106-0.666,0.201-1.004,0.285c-0.676,0.169-1.374,0.317-2.071,0.423&#10;&#9;&#9;&#9;&#9;&#9;&#9;c-0.285,0.042-0.581,0.084-0.877,0.116c-0.063,0.01-0.116,0.01-0.18,0.021c-0.254,0.021-0.507,0.042-0.75,0.053&#10;&#9;&#9;&#9;&#9;&#9;&#9;c-0.296,0.021-0.581,0.032-0.867,0.042c-0.095,0-0.19,0-0.275,0.011H430.631c-0.085-0.011-0.18-0.011-0.275-0.011&#10;&#9;&#9;&#9;&#9;&#9;&#9;c-0.285-0.011-0.571-0.021-0.866-0.042c-0.243-0.01-0.497-0.032-0.75-0.053c-0.063-0.011-0.116-0.011-0.18-0.021&#10;&#9;&#9;&#9;&#9;&#9;&#9;c-0.296-0.032-0.592-0.074-0.877-0.116c-0.698-0.106-1.395-0.254-2.071-0.423c-0.338-0.084-0.666-0.18-1.004-0.285&#10;&#9;&#9;&#9;&#9;&#9;&#9;c-0.306-0.095-0.602-0.201-0.909-0.306c-0.328-0.116-0.645-0.243-0.972-0.381h-0.011c-0.064-0.021-0.116-0.042-0.169-0.074&#10;&#9;&#9;&#9;&#9;&#9;&#9;c-0.074-0.032-0.137-0.053-0.201-0.085c-0.127-0.053-0.254-0.106-0.37-0.169c-0.148-0.063-0.285-0.127-0.412-0.201&#10;&#9;&#9;&#9;&#9;&#9;&#9;c-0.159-0.074-0.307-0.148-0.455-0.232c-0.021,0-0.031-0.011-0.053-0.021c-0.074-0.042-0.159-0.084-0.233-0.137&#10;&#9;&#9;&#9;&#9;&#9;&#9;c-0.211-0.095-0.412-0.211-0.613-0.338c-0.159-0.085-0.317-0.18-0.476-0.296c-0.201-0.116-0.402-0.254-0.602-0.381&#10;&#9;&#9;&#9;&#9;&#9;&#9;c-0.053-0.031-0.106-0.063-0.159-0.116c-0.127-0.074-0.243-0.158-0.359-0.243c0,0-0.01,0-0.01-0.011&#10;&#9;&#9;&#9;&#9;&#9;&#9;c-0.127-0.085-0.243-0.169-0.359-0.264c-0.106-0.074-0.201-0.148-0.307-0.232c-0.169-0.137-0.338-0.264-0.497-0.402&#10;&#9;&#9;&#9;&#9;&#9;&#9;c-0.169-0.137-0.349-0.285-0.518-0.433c-0.074-0.063-0.137-0.127-0.211-0.19c-0.127-0.106-0.232-0.201-0.338-0.317&#10;&#9;&#9;&#9;&#9;&#9;&#9;c-0.158-0.137-0.296-0.275-0.433-0.423c-0.085-0.074-0.159-0.148-0.233-0.233c-0.085-0.084-0.169-0.169-0.243-0.254&#10;&#9;&#9;&#9;&#9;&#9;&#9;c-0.074-0.074-0.148-0.148-0.212-0.232h-0.01c-0.064-0.063-0.116-0.127-0.169-0.201c-0.169-0.19-0.328-0.381-0.486-0.571&#10;&#9;&#9;&#9;&#9;&#9;&#9;h-0.011c-0.084-0.095-0.169-0.201-0.243-0.306c-0.032-0.032-0.063-0.064-0.084-0.105c-0.074-0.095-0.148-0.19-0.212-0.285&#10;&#9;&#9;&#9;&#9;&#9;&#9;c-0.021-0.011-0.042-0.032-0.053-0.053c-0.011-0.021-0.032-0.042-0.042-0.063c-0.074-0.085-0.138-0.169-0.19-0.264&#10;&#9;&#9;&#9;&#9;&#9;&#9;c-0.053-0.053-0.095-0.116-0.137-0.18c-0.063-0.085-0.116-0.169-0.18-0.264c-0.032-0.032-0.053-0.074-0.085-0.116&#10;&#9;&#9;&#9;&#9;&#9;&#9;c-0.053-0.074-0.106-0.148-0.148-0.222c-0.064-0.084-0.116-0.169-0.169-0.264c-0.053-0.074-0.095-0.148-0.148-0.232&#10;&#9;&#9;&#9;&#9;&#9;&#9;c-0.021-0.042-0.053-0.085-0.085-0.137c-0.021-0.032-0.032-0.063-0.053-0.095c-0.074-0.116-0.148-0.232-0.211-0.359&#10;&#9;&#9;&#9;&#9;&#9;&#9;c-0.053-0.085-0.106-0.169-0.148-0.264c-0.031-0.053-0.063-0.116-0.095-0.169c-0.095-0.169-0.19-0.349-0.275-0.528&#10;&#9;&#9;&#9;&#9;&#9;&#9;c-0.106-0.201-0.211-0.402-0.306-0.613c-0.011-0.021-0.011-0.032-0.021-0.053c-0.021-0.032-0.032-0.063-0.042-0.105&#10;&#9;&#9;&#9;&#9;&#9;&#9;c-0.116-0.243-0.222-0.486-0.327-0.74c-0.106-0.254-0.212-0.507-0.296-0.771c-0.042-0.106-0.074-0.212-0.116-0.317&#10;&#9;&#9;&#9;&#9;&#9;&#9;c-0.032-0.095-0.063-0.19-0.095-0.285c-0.021-0.053-0.042-0.106-0.053-0.169c-0.031-0.074-0.053-0.138-0.074-0.212&#10;&#9;&#9;&#9;&#9;&#9;&#9;c-0.021-0.064-0.042-0.137-0.063-0.201c-0.085-0.285-0.169-0.571-0.233-0.856c-0.085-0.317-0.159-0.634-0.222-0.962&#10;&#9;&#9;&#9;&#9;&#9;&#9;c0,0,0,0,0-0.011c-0.064-0.264-0.106-0.528-0.148-0.803c-0.138-0.782-0.222-1.575-0.254-2.378&#10;&#9;&#9;&#9;&#9;&#9;&#9;c-0.01-0.19-0.021-0.381-0.021-0.581c-0.222-2.167-1.997-3.857-4.185-3.974H594.435z"/>
            <path d="M429.49,179.587c0.296,0.021,0.581,0.032,0.866,0.042c-0.158,0-0.327,0-0.486-0.011c-0.169,0-0.338-0.011-0.507-0.032&#10;&#9;&#9;&#9;&#9;&#9;&#9;c-0.19-0.01-0.37-0.032-0.56-0.042c-0.021,0-0.042,0-0.063-0.011C428.993,179.555,429.247,179.577,429.49,179.587z"/>
            <path d="M571.26,179.534c-0.021,0.011-0.042,0.011-0.064,0.011c-0.19,0.011-0.37,0.032-0.56,0.042&#10;&#9;&#9;&#9;&#9;&#9;&#9;c-0.169,0.021-0.338,0.032-0.507,0.032c-0.159,0.011-0.328,0.011-0.486,0.011c0.285-0.011,0.571-0.021,0.867-0.042&#10;&#9;&#9;&#9;&#9;&#9;&#9;C570.752,179.577,571.006,179.555,571.26,179.534z"/>
            <path d="M411.027,165.754c-0.01-0.011-0.01-0.021-0.021-0.032c-0.032-0.095-0.063-0.19-0.095-0.285&#10;&#9;&#9;&#9;&#9;&#9;&#9;C410.954,165.542,410.985,165.648,411.027,165.754z"/>
            <path d="M411.651,167.265c-0.095-0.18-0.169-0.359-0.254-0.539c-0.021-0.074-0.053-0.138-0.074-0.201&#10;&#9;&#9;&#9;&#9;&#9;&#9;C411.429,166.779,411.535,167.022,411.651,167.265z"/>
            <path d="M414.251,171.535c-0.095-0.106-0.18-0.222-0.264-0.338c0.01,0.021,0.032,0.042,0.053,0.053&#10;&#9;&#9;&#9;&#9;&#9;&#9;C414.103,171.344,414.177,171.439,414.251,171.535z"/>
            <path d="M415.075,172.517c-0.116-0.116-0.222-0.232-0.317-0.359c-0.064-0.074-0.127-0.137-0.18-0.211h0.011&#10;&#9;&#9;&#9;&#9;&#9;&#9;C414.747,172.137,414.906,172.327,415.075,172.517z"/>
            <path d="M415.466,172.951c-0.085-0.074-0.158-0.158-0.222-0.232h0.01C415.318,172.803,415.392,172.876,415.466,172.951z"/>
            <path d="M417.939,175.202c-0.169-0.116-0.338-0.254-0.497-0.391c-0.095-0.074-0.201-0.158-0.296-0.254&#10;&#9;&#9;&#9;&#9;&#9;&#9;c-0.084-0.063-0.148-0.127-0.222-0.19c0.169,0.148,0.349,0.296,0.518,0.433C417.601,174.937,417.77,175.064,417.939,175.202z"/>
            <path d="M418.246,175.434c0.116,0.095,0.233,0.18,0.359,0.264c-0.042-0.021-0.074-0.042-0.106-0.064&#10;&#9;&#9;&#9;&#9;&#9;&#9;C418.415,175.571,418.33,175.508,418.246,175.434z"/>
            <path d="M419.736,176.449c-0.127-0.063-0.243-0.137-0.359-0.211c-0.011,0-0.011-0.011-0.021-0.011&#10;&#9;&#9;&#9;&#9;&#9;&#9;c-0.074-0.053-0.148-0.106-0.222-0.159C419.334,176.195,419.535,176.332,419.736,176.449z"/>
            <path d="M423.699,178.383c-0.275-0.095-0.539-0.19-0.814-0.307c-0.053-0.021-0.106-0.042-0.159-0.074&#10;&#9;&#9;&#9;&#9;&#9;&#9;C423.054,178.14,423.371,178.266,423.699,178.383z"/>
            <path d="M424.607,178.689c0.338,0.106,0.666,0.201,1.004,0.285c-0.222-0.053-0.455-0.116-0.677-0.18&#10;&#9;&#9;&#9;&#9;&#9;&#9;c-0.116-0.032-0.222-0.063-0.328-0.095c-0.148-0.042-0.296-0.095-0.444-0.148c-0.158-0.053-0.317-0.106-0.465-0.169&#10;&#9;&#9;&#9;&#9;&#9;&#9;C424.005,178.488,424.301,178.594,424.607,178.689z"/>
            <path d="M427.683,179.397c0.285,0.042,0.581,0.084,0.877,0.116c-0.264-0.021-0.528-0.053-0.782-0.095&#10;&#9;&#9;&#9;&#9;&#9;&#9;c-0.032,0-0.064-0.011-0.095-0.011c-0.116-0.021-0.233-0.042-0.349-0.064c-0.232-0.032-0.465-0.074-0.698-0.127&#10;&#9;&#9;&#9;&#9;&#9;&#9;c-0.296-0.063-0.581-0.127-0.877-0.201c-0.042-0.01-0.095-0.021-0.148-0.042C426.288,179.143,426.985,179.291,427.683,179.397z&#10;&#9;&#9;&#9;&#9;&#9;&#9;"/>
            <path d="M429.49,179.587h-0.127c-0.064,0-0.137,0-0.201-0.01c-0.116-0.011-0.243-0.021-0.359-0.032&#10;&#9;&#9;&#9;&#9;&#9;&#9;c-0.021,0-0.042,0-0.063-0.011C428.993,179.555,429.247,179.577,429.49,179.587z"/>
            <path d="M569.368,179.64c-0.085,0.011-0.18,0.011-0.275,0.011H430.906c-0.095,0-0.19,0-0.275-0.011H569.368z"/>
            <path d="M570.509,179.587c0.243-0.01,0.497-0.032,0.75-0.053c-0.021,0.011-0.042,0.011-0.064,0.011&#10;&#9;&#9;&#9;&#9;&#9;&#9;c-0.116,0.011-0.243,0.021-0.359,0.032c-0.063,0.01-0.138,0.01-0.201,0.01H570.509z"/>
            <path d="M572.316,179.397c0.698-0.106,1.395-0.254,2.071-0.423c-0.053,0.021-0.106,0.032-0.148,0.042&#10;&#9;&#9;&#9;&#9;&#9;&#9;c-0.296,0.074-0.581,0.138-0.877,0.201c-0.232,0.053-0.465,0.095-0.697,0.127c-0.116,0.021-0.232,0.042-0.349,0.064&#10;&#9;&#9;&#9;&#9;&#9;&#9;c-0.032,0-0.063,0.011-0.095,0.011c-0.254,0.042-0.518,0.074-0.782,0.095C571.735,179.482,572.031,179.439,572.316,179.397z"/>
            <path d="M576.3,178.383c-0.148,0.063-0.307,0.116-0.465,0.169c-0.148,0.053-0.296,0.106-0.444,0.148&#10;&#9;&#9;&#9;&#9;&#9;&#9;c-0.106,0.031-0.212,0.063-0.328,0.095c-0.222,0.063-0.455,0.127-0.677,0.18c0.338-0.084,0.666-0.18,1.004-0.285&#10;&#9;&#9;&#9;&#9;&#9;&#9;C575.698,178.594,575.994,178.488,576.3,178.383z"/>
            <path d="M576.3,178.383c0.328-0.116,0.644-0.243,0.972-0.381c-0.053,0.032-0.105,0.053-0.158,0.074&#10;&#9;&#9;&#9;&#9;&#9;&#9;C576.839,178.193,576.575,178.287,576.3,178.383z"/>
            <path d="M580.263,176.449c0.201-0.116,0.401-0.254,0.602-0.381c-0.074,0.053-0.148,0.106-0.222,0.159&#10;&#9;&#9;&#9;&#9;&#9;&#9;c-0.01,0-0.01,0.011-0.021,0.011C580.506,176.311,580.39,176.385,580.263,176.449z"/>
            <path d="M581.754,175.434c-0.085,0.074-0.169,0.137-0.254,0.201c-0.031,0.021-0.064,0.042-0.106,0.064&#10;&#9;&#9;&#9;&#9;&#9;&#9;C581.521,175.614,581.637,175.529,581.754,175.434z"/>
            <path d="M583.075,174.367c-0.074,0.064-0.138,0.127-0.222,0.19c-0.095,0.095-0.201,0.18-0.296,0.254&#10;&#9;&#9;&#9;&#9;&#9;&#9;c-0.158,0.137-0.328,0.275-0.497,0.391c0.169-0.137,0.338-0.264,0.497-0.402C582.726,174.663,582.905,174.515,583.075,174.367z&#10;&#9;&#9;&#9;&#9;&#9;&#9;"/>
            <path d="M584.755,172.718c-0.064,0.074-0.137,0.158-0.222,0.232c0.074-0.074,0.148-0.148,0.211-0.232H584.755z"/>
            <path d="M585.42,171.947c-0.053,0.074-0.116,0.137-0.18,0.211c-0.042,0.053-0.085,0.106-0.148,0.159&#10;&#9;&#9;&#9;&#9;&#9;&#9;c0.106-0.116,0.211-0.243,0.317-0.37H585.42z"/>
            <path d="M586.012,171.196c-0.085,0.116-0.169,0.232-0.264,0.338c0.074-0.095,0.148-0.19,0.212-0.285&#10;&#9;&#9;&#9;&#9;&#9;&#9;C585.981,171.239,586.002,171.217,586.012,171.196z"/>
            <path d="M588.675,166.525c-0.021,0.063-0.053,0.127-0.074,0.201c-0.085,0.18-0.159,0.359-0.254,0.539&#10;&#9;&#9;&#9;&#9;&#9;&#9;C588.464,167.022,588.57,166.779,588.675,166.525z"/>
            <path d="M589.088,165.437c-0.032,0.095-0.064,0.19-0.095,0.285c-0.011,0.011-0.011,0.021-0.021,0.032&#10;&#9;&#9;&#9;&#9;&#9;&#9;C589.014,165.648,589.045,165.542,589.088,165.437z"/>
            <g>
              <path style="fill:url(#SVGID_00000002353241371547731520000016944088899132945801_);" d="M665.321,819.917v7.341&#10;&#9;&#9;&#9;&#9;&#9;&#9;&#9;c0,7.479-1.999,14.553-5.49,20.65c-6.383,5.913-14.691,9.791-23.874,10.519c-0.368,0.028-0.746,0.055-1.124,0.064&#10;&#9;&#9;&#9;&#9;&#9;&#9;&#9;c-0.681,0.037-1.372,0.055-2.063,0.055H367.275c-0.7,0-1.4-0.018-2.091-0.055c-0.368-0.009-0.746-0.037-1.087-0.064&#10;&#9;&#9;&#9;&#9;&#9;&#9;&#9;c-0.507-0.037-1.013-0.092-1.52-0.157c-8.584-1.004-16.33-4.771-22.354-10.353c-3.518-6.116-5.536-13.217-5.536-20.724v-8.593&#10;&#9;&#9;&#9;&#9;&#9;&#9;&#9;c0,9.809,4.449,18.744,11.467,24.749c5.066,4.347,11.476,7.175,18.522,7.728c0.23,0.018,0.461,0.046,0.691,0.046l0.101,0.009&#10;&#9;&#9;&#9;&#9;&#9;&#9;&#9;h0.101c0.562,0.028,1.133,0.046,1.704,0.046h265.496c0.553,0,1.114-0.018,1.667-0.046h0.111l0.101-0.009&#10;&#9;&#9;&#9;&#9;&#9;&#9;&#9;c0.258,0,0.507-0.028,0.755-0.046C651.745,849.796,664.658,836.229,665.321,819.917z"/>
              <path style="fill:url(#SVGID_00000132050124908146351980000010607719726410558649_);" d="M672.69,181.658l0.028-0.064&#10;&#9;&#9;&#9;&#9;&#9;&#9;&#9;c0-21.258-16.607-38.777-37.828-39.891l-0.064-0.009c-0.672-0.028-1.363-0.046-2.054-0.046H367.275&#10;&#9;&#9;&#9;&#9;&#9;&#9;&#9;c-0.691,0-1.382,0.019-2.054,0.046l-0.092,0.009h-0.018c-0.866,0.046-1.713,0.12-2.56,0.221&#10;&#9;&#9;&#9;&#9;&#9;&#9;&#9;c-8.612,1.013-16.349,4.743-22.363,10.288c-3.5,6.107-5.499,13.217-5.499,20.788v8.594c0-9.892,4.421-18.799,11.44-24.795&#10;&#9;&#9;&#9;&#9;&#9;&#9;&#9;c5.213-4.449,11.854-7.295,19.195-7.728h0.175l0.239-0.028c0.562-0.018,1.069-0.028,1.538-0.028h265.496&#10;&#9;&#9;&#9;&#9;&#9;&#9;&#9;c0.424,0,0.884,0.009,1.391,0.028h0.009l0.332,0.018c16.846,0.884,30.137,14.461,30.819,31.187v-7.184&#10;&#9;&#9;&#9;&#9;&#9;&#9;&#9;c0-7.571-1.999-14.682-5.499-20.788C667.753,159.59,672.69,170.072,672.69,181.658z"/>
              <path style="fill:url(#SVGID_00000153672770063118757120000009908715560468949427_);" d="M340.205,847.723&#10;&#9;&#9;&#9;&#9;&#9;&#9;&#9;c-7.94-7.35-12.904-17.841-12.904-29.317V181.594c0-11.587,4.937-22.069,12.867-29.382c-3.5,6.107-5.499,13.217-5.499,20.788&#10;&#9;&#9;&#9;&#9;&#9;&#9;&#9;v653.999C334.67,834.506,336.687,841.607,340.205,847.723z"/>
              <path style="fill:url(#SVGID_00000001639158593583684730000012543460805375387811_);" d="M672.708,181.688V818.5&#10;&#9;&#9;&#9;&#9;&#9;&#9;&#9;c0,3.942-0.589,7.774-1.676,11.393c-0.875,2.892-2.063,5.655-3.546,8.244c-0.304,0.534-0.626,1.059-0.949,1.575&#10;&#9;&#9;&#9;&#9;&#9;&#9;&#9;c-0.479,0.774-0.995,1.529-1.547,2.266c-1.529,2.109-3.27,4.071-5.186,5.84c0.018-0.028,0.028-0.046,0.046-0.074&#10;&#9;&#9;&#9;&#9;&#9;&#9;&#9;c3.491-6.097,5.49-13.171,5.49-20.65V173.094c0-7.571-1.999-14.682-5.499-20.788&#10;&#9;&#9;&#9;&#9;&#9;&#9;&#9;C667.771,159.619,672.708,170.101,672.708,181.688z"/>
            </g>
            <g>
              <path style="fill:url(#SVGID_00000037676193140622509740000000204631296410210196_);" d="M520.071,162.315h-40.142&#10;&#9;&#9;&#9;&#9;&#9;&#9;&#9;c-0.615,0-1.114-0.499-1.114-1.114v-2.225c0-0.615,0.499-1.114,1.114-1.114h40.142c0.615,0,1.114,0.499,1.114,1.114v2.225&#10;&#9;&#9;&#9;&#9;&#9;&#9;&#9;C521.184,161.816,520.686,162.315,520.071,162.315z"/>
            </g>
            <g>
              <defs>
                <path id="SVGID_00000168839919010260470190000011067215617794455985_" d="M634.512,155.063h-0.239l-0.359-0.037&#10;&#9;&#9;&#9;&#9;&#9;&#9;&#9;&#9;c-0.424-0.018-0.81-0.018-1.17-0.018h-38.307c-2.192,0.111-3.961,1.805-4.182,3.97c-0.009,0.147-0.018,0.295-0.018,0.451&#10;&#9;&#9;&#9;&#9;&#9;&#9;&#9;&#9;v0.055c-0.525,11.228-9.791,20.162-21.138,20.162h-65.395h-7.405h-65.395c-11.347,0-20.613-8.934-21.138-20.162v-0.055&#10;&#9;&#9;&#9;&#9;&#9;&#9;&#9;&#9;c0-0.157-0.009-0.304-0.018-0.451c-0.221-2.165-1.99-3.859-4.182-3.97h-38.307c-0.359,0-0.746,0-1.17,0.018l-0.359,0.037&#10;&#9;&#9;&#9;&#9;&#9;&#9;&#9;&#9;h-0.239c-13.945,0.912-24.832,12.517-24.832,26.536v636.812c0,13.779,10.758,25.431,24.482,26.508&#10;&#9;&#9;&#9;&#9;&#9;&#9;&#9;&#9;c0.138,0.009,0.249,0.018,0.359,0.028h0.092l0.074,0.009h0.157l0.055,0.009c0.461,0.018,0.921,0.037,1.382,0.037h129.04&#10;&#9;&#9;&#9;&#9;&#9;&#9;&#9;&#9;h7.405h129.041c0.46,0,0.921-0.018,1.382-0.037l0.055-0.009h0.157l0.074-0.009h0.092c0.11-0.009,0.221-0.018,0.359-0.028&#10;&#9;&#9;&#9;&#9;&#9;&#9;&#9;&#9;c13.724-1.078,24.482-12.729,24.482-26.508V181.599C659.343,167.58,648.456,155.975,634.512,155.063z"/>
              </defs>
            </g>
          </g>
          <path style="fill:url(#SVGID_00000169529704081687880120000000151342514403285938_);" d="M659.344,181.595v636.817&#10;&#9;&#9;&#9;&#9;&#9;c0,6.034-2.061,11.646-5.517,16.159c-0.19,0.243-0.38,0.476-0.57,0.708c-0.592,0.708-1.205,1.384-1.849,2.029&#10;&#9;&#9;&#9;&#9;&#9;c-0.571,0.56-1.173,1.109-1.797,1.628H649.6c-0.782,0.644-1.606,1.247-2.462,1.807c-0.846,0.55-1.733,1.057-2.653,1.522h-0.011&#10;&#9;&#9;&#9;&#9;&#9;c-0.454,0.222-0.919,0.433-1.395,0.644c0,0,0,0-0.011,0c-0.465,0.201-0.951,0.38-1.437,0.56&#10;&#9;&#9;&#9;&#9;&#9;c-0.972,0.349-1.976,0.634-3.001,0.877c-1.226,0.275-2.484,0.465-3.773,0.571c-0.138,0.01-0.233,0.021-0.349,0.032h-0.095&#10;&#9;&#9;&#9;&#9;&#9;l-0.074,0.011h-0.18l-0.032,0.01c-0.116,0-0.243,0-0.359,0.011c-0.116,0-0.222,0.011-0.338,0.011&#10;&#9;&#9;&#9;&#9;&#9;c-0.232,0-0.465,0.01-0.687,0.01H367.255c-0.222,0-0.454-0.01-0.687-0.01c-0.233-0.011-0.465-0.021-0.698-0.021l-0.042-0.01&#10;&#9;&#9;&#9;&#9;&#9;h-0.169l-0.074-0.011h-0.084c-0.116-0.011-0.222-0.021-0.359-0.032c-13.728-1.078-24.486-12.724-24.486-26.505V181.595&#10;&#9;&#9;&#9;&#9;&#9;c0-14.013,10.885-25.617,24.835-26.536h0.232l0.359-0.032c0.433-0.021,0.814-0.021,1.173-0.021h38.309&#10;&#9;&#9;&#9;&#9;&#9;c2.188,0.116,3.963,1.807,4.185,3.974c0.011,0.148,0.011,0.296,0.011,0.444v0.063c0,0.021,0,0.053,0.01,0.074&#10;&#9;&#9;&#9;&#9;&#9;c0.032,0.803,0.116,1.596,0.254,2.378c0.042,0.275,0.084,0.539,0.148,0.803c0,0.011,0,0.011,0,0.011&#10;&#9;&#9;&#9;&#9;&#9;c0.063,0.328,0.137,0.645,0.222,0.962c0.064,0.285,0.148,0.571,0.233,0.856c0.021,0.063,0.042,0.137,0.063,0.201&#10;&#9;&#9;&#9;&#9;&#9;c0.021,0.074,0.042,0.137,0.074,0.212c0.011,0.063,0.032,0.116,0.053,0.169c0.031,0.095,0.063,0.19,0.095,0.285&#10;&#9;&#9;&#9;&#9;&#9;c0.032,0.095,0.064,0.19,0.095,0.285c0.011,0.011,0.011,0.021,0.021,0.032c0.085,0.264,0.19,0.518,0.296,0.771&#10;&#9;&#9;&#9;&#9;&#9;c0.105,0.254,0.211,0.497,0.327,0.74c0.011,0.042,0.021,0.074,0.042,0.105c0.011,0.021,0.011,0.032,0.021,0.053&#10;&#9;&#9;&#9;&#9;&#9;c0.095,0.211,0.201,0.412,0.306,0.613c0.084,0.18,0.18,0.359,0.275,0.528c0.032,0.053,0.064,0.116,0.095,0.169&#10;&#9;&#9;&#9;&#9;&#9;c0.042,0.095,0.095,0.18,0.148,0.264c0.064,0.127,0.137,0.243,0.211,0.359c0.021,0.032,0.032,0.064,0.053,0.095&#10;&#9;&#9;&#9;&#9;&#9;c0.032,0.053,0.063,0.095,0.085,0.137c0.053,0.085,0.095,0.158,0.148,0.232c0.053,0.095,0.105,0.18,0.169,0.264&#10;&#9;&#9;&#9;&#9;&#9;c0.042,0.074,0.095,0.148,0.148,0.222c0.032,0.042,0.053,0.085,0.085,0.116c0.063,0.095,0.116,0.18,0.18,0.264&#10;&#9;&#9;&#9;&#9;&#9;c0.042,0.063,0.085,0.127,0.137,0.18c0.053,0.095,0.116,0.18,0.19,0.264c0.01,0.021,0.031,0.042,0.042,0.063&#10;&#9;&#9;&#9;&#9;&#9;c0.01,0.021,0.032,0.042,0.053,0.053c0.064,0.095,0.138,0.19,0.212,0.285c0.021,0.042,0.053,0.074,0.084,0.105&#10;&#9;&#9;&#9;&#9;&#9;c0.074,0.106,0.159,0.212,0.243,0.306h0.011c0.053,0.074,0.106,0.148,0.169,0.211c0.095,0.127,0.201,0.243,0.317,0.359&#10;&#9;&#9;&#9;&#9;&#9;c0.053,0.074,0.106,0.137,0.169,0.201h0.01c0.064,0.085,0.137,0.158,0.212,0.232c0.074,0.085,0.158,0.169,0.243,0.254&#10;&#9;&#9;&#9;&#9;&#9;c0.074,0.085,0.148,0.159,0.233,0.233c0.137,0.148,0.275,0.285,0.433,0.423c0.106,0.116,0.212,0.211,0.338,0.317&#10;&#9;&#9;&#9;&#9;&#9;c0.074,0.063,0.138,0.127,0.211,0.19c0.074,0.064,0.138,0.127,0.222,0.19c0.095,0.085,0.19,0.169,0.296,0.243v0.011&#10;&#9;&#9;&#9;&#9;&#9;c0.159,0.137,0.328,0.275,0.497,0.391c0.106,0.085,0.201,0.159,0.307,0.232c0.085,0.074,0.169,0.137,0.254,0.201&#10;&#9;&#9;&#9;&#9;&#9;c0.032,0.021,0.063,0.042,0.106,0.064c0,0.011,0.01,0.011,0.01,0.011c0.116,0.085,0.233,0.169,0.359,0.243&#10;&#9;&#9;&#9;&#9;&#9;c0.053,0.053,0.106,0.085,0.159,0.116c0.074,0.053,0.148,0.106,0.222,0.159c0.011,0,0.011,0.011,0.021,0.011&#10;&#9;&#9;&#9;&#9;&#9;c0.116,0.074,0.232,0.148,0.359,0.211c0.158,0.116,0.317,0.211,0.476,0.296c0.201,0.127,0.401,0.243,0.613,0.338&#10;&#9;&#9;&#9;&#9;&#9;c0.074,0.053,0.159,0.095,0.233,0.137c0.021,0.011,0.031,0.021,0.053,0.021c0.148,0.085,0.296,0.159,0.455,0.232&#10;&#9;&#9;&#9;&#9;&#9;c0.127,0.074,0.264,0.138,0.412,0.201c0.116,0.063,0.243,0.116,0.37,0.169c0.063,0.032,0.127,0.064,0.201,0.085&#10;&#9;&#9;&#9;&#9;&#9;c0.053,0.031,0.105,0.053,0.169,0.074c0.053,0.032,0.116,0.053,0.169,0.074c0.275,0.116,0.539,0.211,0.814,0.307&#10;&#9;&#9;&#9;&#9;&#9;c0.148,0.063,0.306,0.116,0.465,0.169c0.148,0.053,0.296,0.095,0.444,0.137v0.011c0.106,0.031,0.212,0.063,0.328,0.095&#10;&#9;&#9;&#9;&#9;&#9;c0.222,0.063,0.454,0.127,0.677,0.18c0.053,0.021,0.105,0.032,0.148,0.042c0.296,0.074,0.581,0.138,0.877,0.201&#10;&#9;&#9;&#9;&#9;&#9;c0.233,0.053,0.465,0.095,0.698,0.127c0.116,0.021,0.232,0.042,0.349,0.053v0.011c0.031,0,0.063,0.011,0.095,0.011&#10;&#9;&#9;&#9;&#9;&#9;c0.254,0.042,0.518,0.074,0.782,0.095c0.063,0.01,0.116,0.01,0.18,0.021c0.021,0.011,0.042,0.011,0.063,0.011&#10;&#9;&#9;&#9;&#9;&#9;c0.116,0.011,0.243,0.021,0.359,0.032c0.063,0.01,0.137,0.01,0.201,0.01c0.169,0.021,0.338,0.032,0.507,0.032&#10;&#9;&#9;&#9;&#9;&#9;c0.254,0.021,0.507,0.032,0.761,0.021c0.084,0.011,0.18,0.011,0.275,0.011h138.187c0.095,0,0.19,0,0.275-0.011&#10;&#9;&#9;&#9;&#9;&#9;c0.254,0.011,0.507,0,0.761-0.021c0.169,0,0.338-0.011,0.507-0.032c0.063,0,0.137,0,0.201-0.01&#10;&#9;&#9;&#9;&#9;&#9;c0.116-0.011,0.243-0.021,0.359-0.032c0.021,0,0.042,0,0.064-0.011c0.063-0.011,0.116-0.011,0.18-0.021&#10;&#9;&#9;&#9;&#9;&#9;c0.264-0.021,0.528-0.053,0.782-0.095c0.031,0,0.063-0.011,0.095-0.011v-0.011c0.116-0.011,0.232-0.032,0.349-0.053&#10;&#9;&#9;&#9;&#9;&#9;c0.232-0.032,0.465-0.074,0.697-0.127c0.296-0.063,0.581-0.127,0.877-0.201c0.042-0.01,0.095-0.021,0.148-0.042&#10;&#9;&#9;&#9;&#9;&#9;c0.222-0.053,0.455-0.116,0.677-0.18c0.116-0.032,0.222-0.063,0.328-0.095v-0.011c0.148-0.042,0.296-0.084,0.444-0.137&#10;&#9;&#9;&#9;&#9;&#9;c0.158-0.053,0.317-0.106,0.465-0.169c0.275-0.095,0.539-0.19,0.814-0.307c0.053-0.021,0.116-0.042,0.169-0.074&#10;&#9;&#9;&#9;&#9;&#9;c0.063-0.021,0.116-0.042,0.169-0.074c0.074-0.021,0.137-0.053,0.201-0.085c0.127-0.053,0.254-0.106,0.37-0.169&#10;&#9;&#9;&#9;&#9;&#9;c0.148-0.063,0.285-0.127,0.412-0.201c0.158-0.074,0.307-0.148,0.454-0.232c0.021,0,0.032-0.011,0.053-0.021&#10;&#9;&#9;&#9;&#9;&#9;c0.074-0.042,0.158-0.084,0.233-0.137c0.211-0.095,0.412-0.211,0.613-0.338c0.158-0.085,0.317-0.18,0.476-0.296&#10;&#9;&#9;&#9;&#9;&#9;c0.127-0.063,0.243-0.137,0.359-0.211c0.011,0,0.011-0.011,0.021-0.011c0.074-0.053,0.148-0.106,0.222-0.159&#10;&#9;&#9;&#9;&#9;&#9;c0.053-0.031,0.105-0.063,0.158-0.116c0.127-0.074,0.243-0.158,0.359-0.243c0,0,0.011,0,0.011-0.011&#10;&#9;&#9;&#9;&#9;&#9;c0.042-0.021,0.074-0.042,0.106-0.064c0.085-0.063,0.169-0.127,0.254-0.201c0.105-0.074,0.201-0.148,0.306-0.232&#10;&#9;&#9;&#9;&#9;&#9;c0.169-0.116,0.338-0.254,0.497-0.391V174.8c0.106-0.074,0.201-0.158,0.296-0.243c0.085-0.063,0.148-0.127,0.222-0.19&#10;&#9;&#9;&#9;&#9;&#9;c0.074-0.063,0.137-0.127,0.211-0.19c0.127-0.106,0.233-0.201,0.338-0.317c0.159-0.137,0.296-0.275,0.433-0.423&#10;&#9;&#9;&#9;&#9;&#9;c0.084-0.074,0.158-0.148,0.233-0.233c0.085-0.084,0.169-0.169,0.243-0.254c0.074-0.074,0.148-0.148,0.211-0.232h0.011&#10;&#9;&#9;&#9;&#9;&#9;c0,0,0.011-0.011,0.011-0.021c0.116-0.116,0.233-0.243,0.328-0.38c0.063-0.053,0.106-0.106,0.148-0.159&#10;&#9;&#9;&#9;&#9;&#9;c0.063-0.063,0.116-0.137,0.169-0.211h0.01c0.085-0.095,0.169-0.201,0.243-0.306c0.032-0.032,0.063-0.064,0.085-0.105&#10;&#9;&#9;&#9;&#9;&#9;c0.074-0.095,0.148-0.19,0.212-0.285c0.021-0.011,0.042-0.032,0.053-0.053c0.011-0.021,0.032-0.042,0.042-0.063&#10;&#9;&#9;&#9;&#9;&#9;c0.074-0.085,0.137-0.169,0.19-0.264c0.053-0.053,0.095-0.116,0.137-0.18c0.063-0.085,0.116-0.169,0.18-0.264&#10;&#9;&#9;&#9;&#9;&#9;c0.032-0.042,0.064-0.074,0.085-0.116c0.053-0.074,0.106-0.148,0.148-0.222c0.063-0.084,0.116-0.169,0.169-0.264&#10;&#9;&#9;&#9;&#9;&#9;c0.053-0.074,0.095-0.148,0.148-0.232c0.032-0.053,0.063-0.095,0.085-0.137c0.021-0.032,0.032-0.063,0.053-0.095&#10;&#9;&#9;&#9;&#9;&#9;c0.074-0.116,0.148-0.232,0.212-0.359c0.053-0.085,0.106-0.169,0.148-0.264c0.042-0.064,0.074-0.116,0.095-0.169&#10;&#9;&#9;&#9;&#9;&#9;c0.095-0.169,0.19-0.349,0.275-0.528c0.106-0.201,0.211-0.402,0.307-0.613c0.011-0.021,0.011-0.032,0.021-0.053&#10;&#9;&#9;&#9;&#9;&#9;c0.021-0.032,0.032-0.063,0.042-0.105c0.116-0.243,0.222-0.486,0.328-0.74c0.106-0.254,0.212-0.507,0.296-0.771&#10;&#9;&#9;&#9;&#9;&#9;c0.011-0.011,0.011-0.021,0.021-0.032c0.032-0.095,0.063-0.19,0.095-0.285c0.031-0.095,0.063-0.19,0.095-0.285&#10;&#9;&#9;&#9;&#9;&#9;c0.021-0.053,0.042-0.106,0.053-0.169c0.032-0.074,0.053-0.148,0.074-0.212c0.021-0.074,0.042-0.137,0.063-0.201&#10;&#9;&#9;&#9;&#9;&#9;c0.084-0.285,0.169-0.571,0.232-0.856c0.084-0.317,0.158-0.634,0.222-0.962c0,0,0,0,0-0.011&#10;&#9;&#9;&#9;&#9;&#9;c0.063-0.264,0.105-0.528,0.148-0.803c0.138-0.782,0.222-1.575,0.254-2.378c0.01-0.021,0.01-0.053,0.01-0.074v-0.063&#10;&#9;&#9;&#9;&#9;&#9;c0-0.148,0.011-0.296,0.011-0.444c0.222-2.167,1.997-3.857,4.185-3.974h38.309c0.359,0,0.75,0,1.173,0.021l0.127,0.011&#10;&#9;&#9;&#9;&#9;&#9;l0.232,0.021h0.233c0.233,0.011,0.465,0.032,0.697,0.063c0.116,0,0.232,0.011,0.349,0.032c0.233,0.021,0.465,0.042,0.697,0.084&#10;&#9;&#9;&#9;&#9;&#9;c0.275,0.032,0.55,0.063,0.824,0.116c0.01,0,0.032,0,0.042,0.011c0.401,0.064,0.793,0.137,1.183,0.211&#10;&#9;&#9;&#9;&#9;&#9;c0.074,0.021,0.148,0.042,0.222,0.053c0.328,0.074,0.645,0.148,0.962,0.232c0.465,0.127,0.93,0.264,1.395,0.412&#10;&#9;&#9;&#9;&#9;&#9;c0.37,0.116,0.74,0.243,1.099,0.37c0.391,0.148,0.782,0.307,1.163,0.465c0.761,0.328,1.511,0.687,2.24,1.078&#10;&#9;&#9;&#9;&#9;&#9;c0.655,0.359,1.31,0.74,1.934,1.152c0.137,0.095,0.275,0.19,0.423,0.285c0.254,0.18,0.507,0.359,0.761,0.539&#10;&#9;&#9;&#9;&#9;&#9;c0.327,0.243,0.655,0.497,0.972,0.75c0.634,0.518,1.247,1.057,1.828,1.628c0.296,0.285,0.581,0.581,0.856,0.877&#10;&#9;&#9;&#9;&#9;&#9;c0.275,0.296,0.55,0.602,0.814,0.909c1.057,1.247,2.008,2.589,2.832,4.005c0.412,0.708,0.782,1.448,1.131,2.198&#10;&#9;&#9;&#9;&#9;&#9;c0.338,0.75,0.655,1.511,0.93,2.304c0.138,0.391,0.264,0.782,0.381,1.184c0.254,0.867,0.476,1.744,0.634,2.642&#10;&#9;&#9;&#9;&#9;&#9;c0.074,0.349,0.127,0.708,0.18,1.067C659.249,178.985,659.344,180.285,659.344,181.595z"/>
        </g>
      </g>
    </g>
  </g>
</svg>